<svg xmlns="http://www.w3.org/2000/svg" class="rc" viewBox="0 0 720 360" width="720" height="360" role="img" aria-label="器件功耗（最坏场景）Power per part"><title>器件功耗（最坏场景）Power per part</title><desc>横向柱状图：12 行，单位 W</desc><style>.rc{--rc-bg:#fcfcfb;--rc-ink:#0b0b0b;--rc-ink2:#52514e;--rc-grid:#e6e5e0;--rc-axis:#b9b8b2;--rc-box:#f3f2ee;--rc-ok:#0ca30c;--rc-warn:#fab219;--rc-bad:#d03b3b;--rc-unk:#9a9994;--rc-s1:#2a78d6;--rc-s2:#eb6834;--rc-s3:#1baf7a;--rc-s4:#eda100;--rc-s5:#e87ba4;--rc-s6:#008300;--rc-s7:#4a3aa7;--rc-s8:#e34948;}@media (prefers-color-scheme:dark){.rc{--rc-bg:#1a1a19;--rc-ink:#ffffff;--rc-ink2:#c3c2b7;--rc-grid:#34332f;--rc-axis:#5d5c57;--rc-box:#262624;--rc-s1:#3987e5;--rc-s2:#d95926;--rc-s3:#199e70;--rc-s4:#c98500;--rc-s5:#d55181;--rc-s6:#008300;--rc-s7:#9085e9;--rc-s8:#e66767;}}@media print{.rc{--rc-bg:#ffffff;--rc-ink:#000000;--rc-ink2:#333333;--rc-box:#f4f4f4}}.rc text{font-family:system-ui,-apple-system,"PingFang SC","Microsoft YaHei","Noto Sans CJK SC",sans-serif;font-size:12px;fill:var(--rc-ink)}.rc .m{fill:var(--rc-ink2)}.rc .sm{font-size:11px}.rc .ttl{font-size:14px;font-weight:600}.rc .grid{stroke:var(--rc-grid);stroke-width:1}.rc .axis{stroke:var(--rc-axis);stroke-width:1}.rc .bg{fill:var(--rc-bg)}.rc .ok{fill:var(--rc-ok)}.rc .warn{fill:var(--rc-warn)}.rc .bad{fill:var(--rc-bad)}.rc .unk{fill:var(--rc-unk)}.rc .box{fill:var(--rc-box);stroke:var(--rc-axis)}.rc .lbl{paint-order:stroke;stroke:var(--rc-bg);stroke-width:4px;stroke-linejoin:round}.rc .edge{fill:none;stroke:var(--rc-ink2);stroke-width:1.5}.rc .thr{stroke:var(--rc-bad);stroke-width:1.5;stroke-dasharray:4 3}.rc .thr2{stroke:var(--rc-warn);stroke-width:1.5;stroke-dasharray:4 3}.rc .s1{fill:var(--rc-s1)}.rc .k1{stroke:var(--rc-s1)}.rc .s2{fill:var(--rc-s2)}.rc .k2{stroke:var(--rc-s2)}.rc .s3{fill:var(--rc-s3)}.rc .k3{stroke:var(--rc-s3)}.rc .s4{fill:var(--rc-s4)}.rc .k4{stroke:var(--rc-s4)}.rc .s5{fill:var(--rc-s5)}.rc .k5{stroke:var(--rc-s5)}.rc .s6{fill:var(--rc-s6)}.rc .k6{stroke:var(--rc-s6)}.rc .s7{fill:var(--rc-s7)}.rc .k7{stroke:var(--rc-s7)}.rc .s8{fill:var(--rc-s8)}.rc .k8{stroke:var(--rc-s8)}</style><rect class="bg" x="0" y="0" width="720" height="360" rx="6"/><text class="ttl" x="16" y="24">器件功耗（最坏场景）Power per part</text><line class="grid" x1="210.0" x2="210.0" y1="44" y2="312"/><text class="m sm" x="210.0" y="328" text-anchor="middle">0</text><line class="grid" x1="320.0" x2="320.0" y1="44" y2="312"/><text class="m sm" x="320.0" y="328" text-anchor="middle">0.5</text><line class="grid" x1="430.0" x2="430.0" y1="44" y2="312"/><text class="m sm" x="430.0" y="328" text-anchor="middle">1</text><line class="grid" x1="540.0" x2="540.0" y1="44" y2="312"/><text class="m sm" x="540.0" y="328" text-anchor="middle">1.5</text><line class="grid" x1="650.0" x2="650.0" y1="44" y2="312"/><text class="m sm" x="650.0" y="328" text-anchor="middle">2</text><text class="m sm" x="430" y="346" text-anchor="middle">功耗 (W)</text><line class="axis" x1="210.0" x2="210.0" y1="44" y2="312"/><text class="sm" x="202" y="63" text-anchor="end">U3 ESP32-S3-WROOM-1</text><rect class="s2" x="210.0" y="52" width="365.0" height="14" rx="2"><title>U3 ESP32-S3-WROOM-1（load）: 1.659 W @peak</title></rect><text class="m sm" x="579.0" y="63">1.659 W</text><text class="sm" x="202" y="85" text-anchor="end">U1 SY8089A1AAC</text><rect class="s2" x="210.0" y="74" width="43.5" height="14" rx="2"><title>U1 SY8089A1AAC（buck）: 0.198 W @peak</title></rect><text class="m sm" x="257.5" y="85">0.198 W</text><text class="sm" x="202" y="107" text-anchor="end">D2 SS34</text><rect class="s2" x="210.0" y="96" width="34.4" height="14" rx="2"><title>D2 SS34（diode）: 0.157 W @usb-only</title></rect><text class="m sm" x="248.4" y="107">0.157 W</text><text class="sm" x="202" y="129" text-anchor="end">D1 SS34</text><rect class="s2" x="210.0" y="118" width="34.1" height="14" rx="2"><title>D1 SS34（diode）: 0.155 W @terminal-only</title></rect><text class="m sm" x="248.1" y="129">0.155 W</text><text class="sm" x="202" y="151" text-anchor="end">U2 CH340C</text><rect class="s2" x="210.0" y="140" width="14.6" height="14" rx="2"><title>U2 CH340C（load）: 66.36 mW @peak</title></rect><text class="m sm" x="228.6" y="151">66.36 mW</text><text class="sm" x="202" y="173" text-anchor="end">L1 NLCV32T-2R2M-PF</text><rect class="s2" x="210.0" y="162" width="10.1" height="14" rx="2"><title>L1 NLCV32T-2R2M-PF（inductor）: 45.95 mW @peak</title></rect><text class="m sm" x="224.1" y="173">45.95 mW</text><text class="sm" x="202" y="195" text-anchor="end">LED1 KT-0805Y</text><rect class="s2" x="210.0" y="184" width="1.0" height="14" rx="2"><title>LED1 KT-0805Y（led）: 2.61 mW @typical</title></rect><text class="m sm" x="214.6" y="195">2.61 mW</text><text class="sm" x="202" y="217" text-anchor="end">R7 0402WGF1001TCE</text><rect class="s2" x="210.0" y="206" width="1.0" height="14" rx="2"><title>R7 0402WGF1001TCE（resistor）: 1.96 mW @typical</title></rect><text class="m sm" x="214.4" y="217">1.96 mW</text><text class="sm" x="202" y="239" text-anchor="end">R5 0402WGF1002TCE</text><rect class="s2" x="210.0" y="228" width="1.0" height="14" rx="2"><title>R5 0402WGF1002TCE（resistor）: 1.1 mW @buttons-pressed</title></rect><text class="m sm" x="214.2" y="239">1.1 mW</text><text class="sm" x="202" y="261" text-anchor="end">R6 0402WGF1002TCE</text><rect class="s2" x="210.0" y="250" width="1.0" height="14" rx="2"><title>R6 0402WGF1002TCE（resistor）: 1.1 mW @buttons-pressed</title></rect><text class="m sm" x="214.2" y="261">1.1 mW</text><text class="sm" x="202" y="283" text-anchor="end">R1 0402WGF4532TCE</text><rect class="s2" x="210.0" y="272" width="1.0" height="14" rx="2"><title>R1 0402WGF4532TCE（resistor）: 0.16 mW @typical</title></rect><text class="m sm" x="214.0" y="283">0.16 mW</text><text class="sm" x="202" y="305" text-anchor="end">R2 0402WGF1002TCE</text><rect class="s2" x="210.0" y="294" width="1.0" height="14" rx="2"><title>R2 0402WGF1002TCE（resistor）: 0.04 mW @typical</title></rect><text class="m sm" x="214.0" y="305">0.04 mW</text></svg>
