<svg xmlns="http://www.w3.org/2000/svg" width="800" height="800" viewBox="0 0 400 400"><rect width="100%" height="100%" fill="#f8fafc"/><g font-family="Arial,PingFang SC,sans-serif"><text x="20" y="28" font-size="20" fill="#22344d" text-anchor="start">ams1117-lib-layout · 布局预览</text><text x="20" y="49" font-size="9" fill="#546579" text-anchor="start">离线转译 / 简化符号 / 非仿真、非官方导图</text><text x="20" y="65" font-size="9" fill="#546579" text-anchor="start">只转译输入几何；离线预览不等于现场 Apply 验收。</text><text x="20" y="95" font-size="9" fill="#aa00aa" text-anchor="start">预案 · 4 个器件</text><rect x="20" y="110" width="245" height="270" fill="white" stroke="#aa00aa" stroke-dasharray="5 3"/><text x="30" y="136" font-size="20" fill="#aa00aa" text-anchor="start">ams1117-lib-layout</text><path d="M165 220 L170 220" fill="none" stroke="#07814d" stroke-width="0.8"/><path d="M75 230 L70 230" fill="none" stroke="#07814d" stroke-width="0.8"/><path d="M70 230 L70 260" fill="none" stroke="#07814d" stroke-width="0.8"/><path d="M70 260 L40 260" fill="none" stroke="#07814d" stroke-width="0.8"/><path d="M40 260 L40 250" fill="none" stroke="#07814d" stroke-width="0.8"/><path d="M75 210 L70 210" fill="none" stroke="#07814d" stroke-width="0.8"/><path d="M70 210 L70 180" fill="none" stroke="#07814d" stroke-width="0.8"/><path d="M70 180 L40 180" fill="none" stroke="#07814d" stroke-width="0.8"/><path d="M40 180 L40 210" fill="none" stroke="#07814d" stroke-width="0.8"/><path d="M75 220 L55 220" fill="none" stroke="#07814d" stroke-width="0.8"/><path d="M170 285 L170 220" fill="none" stroke="#07814d" stroke-width="0.8"/><path d="M170 220 L170 200" fill="none" stroke="#07814d" stroke-width="0.8"/><path d="M170 200 L200 200" fill="none" stroke="#07814d" stroke-width="0.8"/><path d="M200 200 L200 210" fill="none" stroke="#07814d" stroke-width="0.8"/><rect x="84.50000000000006" y="199.5" width="71" height="41" fill="white" stroke="#34445b" stroke-width="0.8"/><text x="84.50000000000006" y="195.5" font-size="7" fill="#24344a" text-anchor="start">U1</text><text x="84.50000000000006" y="249.5" font-size="5" fill="#546579" text-anchor="start"></text><path d="M84.50000000000006 230 L75 230" fill="none" stroke="#34445b" stroke-width="0.8"/><text x="86.50000000000006" y="231.5" font-size="4.5" fill="#34445b" text-anchor="start">GND</text><circle cx="75" cy="230" r="1.1" fill="#34445b"><title>U1.1 GND</title></circle><path d="M84.50000000000006 220 L75 220" fill="none" stroke="#34445b" stroke-width="0.8"/><text x="86.50000000000006" y="221.5" font-size="4.5" fill="#34445b" text-anchor="start">VOUT</text><circle cx="75" cy="220" r="1.1" fill="#34445b"><title>U1.2 +3V3</title></circle><path d="M84.50000000000006 210 L75 210" fill="none" stroke="#34445b" stroke-width="0.8"/><text x="86.50000000000006" y="211.5" font-size="4.5" fill="#34445b" text-anchor="start">VIN</text><circle cx="75" cy="210" r="1.1" fill="#34445b"><title>U1.3 +5V</title></circle><path d="M155.50000000000006 220 L165 220" fill="none" stroke="#34445b" stroke-width="0.8"/><text x="153.50000000000006" y="221.5" font-size="4.5" fill="#34445b" text-anchor="end">VOUT</text><circle cx="165" cy="220" r="1.1" fill="#34445b"><title>U1.4 +3V3</title></circle><rect x="31.5" y="219.5" width="17" height="21" fill="white" stroke="#34445b" stroke-width="0.8"/><text x="31.5" y="215.5" font-size="7" fill="#24344a" text-anchor="start">C2</text><text x="31.5" y="249.5" font-size="5" fill="#546579" text-anchor="start">10uF</text><path d="M40 219.5 L40 210" fill="none" stroke="#34445b" stroke-width="0.8"/><text x="40" y="221" font-size="4.5" fill="#34445b" text-anchor="middle">1</text><circle cx="40" cy="210" r="1.1" fill="#34445b"><title>C2.1 +5V</title></circle><path d="M40 240.5 L40 250" fill="none" stroke="#34445b" stroke-width="0.8"/><text x="40" y="242" font-size="4.5" fill="#34445b" text-anchor="middle">2</text><circle cx="40" cy="250" r="1.1" fill="#34445b"><title>C2.2 GND</title></circle><rect x="191.5" y="219.5000000000001" width="17" height="21" fill="white" stroke="#34445b" stroke-width="0.8"/><text x="191.5" y="215.5000000000001" font-size="7" fill="#24344a" text-anchor="start">C1</text><text x="191.5" y="249.5000000000001" font-size="5" fill="#546579" text-anchor="start">100nF</text><path d="M200 219.5000000000001 L200 210" fill="none" stroke="#34445b" stroke-width="0.8"/><text x="200" y="221.0000000000001" font-size="4.5" fill="#34445b" text-anchor="middle">1</text><circle cx="200" cy="210" r="1.1" fill="#34445b"><title>C1.1 +3V3</title></circle><path d="M200 240.5000000000001 L200 250" fill="none" stroke="#34445b" stroke-width="0.8"/><text x="200" y="242.0000000000001" font-size="4.5" fill="#34445b" text-anchor="middle">2</text><circle cx="200" cy="250" r="1.1" fill="#34445b"><title>C1.2 GND</title></circle><rect x="161.5" y="294.5000000000001" width="17" height="21" fill="white" stroke="#34445b" stroke-width="0.8"/><text x="161.5" y="290.5000000000001" font-size="7" fill="#24344a" text-anchor="start">C3</text><text x="161.5" y="324.5000000000001" font-size="5" fill="#546579" text-anchor="start">22uF</text><path d="M170 294.5000000000001 L170 285" fill="none" stroke="#34445b" stroke-width="0.8"/><text x="170" y="296.0000000000001" font-size="4.5" fill="#34445b" text-anchor="middle">1</text><circle cx="170" cy="285" r="1.1" fill="#34445b"><title>C3.1 +3V3</title></circle><path d="M170 315.5000000000001 L170 325" fill="none" stroke="#34445b" stroke-width="0.8"/><text x="170" y="317.0000000000001" font-size="4.5" fill="#34445b" text-anchor="middle">2</text><circle cx="170" cy="325" r="1.1" fill="#34445b"><title>C3.2 GND</title></circle><path d="M200 250 L200 260" fill="none" stroke="#07814d" stroke-width="0.8"/><path d="M200 260 L200 269.5" fill="none" stroke="#176bc0" stroke-width="0.8"/><path d="M189.5 269.5 L210.5 269.5" fill="none" stroke="#176bc0" stroke-width="0.8"/><path d="M193 274.5 L207 274.5" fill="none" stroke="#176bc0" stroke-width="0.8"/><path d="M196.5 279.5 L203.5 279.5" fill="none" stroke="#176bc0" stroke-width="0.8"/><text class="marker-name" transform="translate(200 285.5) rotate(0)" y="3.5" text-anchor="middle" font-size="10" textLength="16" lengthAdjust="spacingAndGlyphs" fill="#176bc0">GND</text><path d="M170 325 L170 335" fill="none" stroke="#07814d" stroke-width="0.8"/><path d="M170 335 L170 344.5" fill="none" stroke="#176bc0" stroke-width="0.8"/><path d="M159.5 344.5 L180.5 344.5" fill="none" stroke="#176bc0" stroke-width="0.8"/><path d="M163 349.5 L177 349.5" fill="none" stroke="#176bc0" stroke-width="0.8"/><path d="M166.5 354.5 L173.5 354.5" fill="none" stroke="#176bc0" stroke-width="0.8"/><text class="marker-name" transform="translate(170 360.5) rotate(0)" y="3.5" text-anchor="middle" font-size="10" textLength="16" lengthAdjust="spacingAndGlyphs" fill="#176bc0">GND</text><path d="M70 260 L70 270" fill="none" stroke="#07814d" stroke-width="0.8"/><path d="M70 270 L70 279.5" fill="none" stroke="#176bc0" stroke-width="0.8"/><path d="M59.5 279.5 L80.5 279.5" fill="none" stroke="#176bc0" stroke-width="0.8"/><path d="M63 284.5 L77 284.5" fill="none" stroke="#176bc0" stroke-width="0.8"/><path d="M66.5 289.5 L73.5 289.5" fill="none" stroke="#176bc0" stroke-width="0.8"/><text class="marker-name" transform="translate(70 295.5) rotate(0)" y="3.5" text-anchor="middle" font-size="10" textLength="16" lengthAdjust="spacingAndGlyphs" fill="#176bc0">GND</text><path d="M55 220 L55 210" fill="none" stroke="#07814d" stroke-width="0.8"/><path d="M55 210 L55 205.5" fill="none" stroke="#176bc0" stroke-width="0.8"/><path d="M55 205.5 L55 199.5" fill="none" stroke="#176bc0" stroke-width="0.8"/><path d="M60.5 199.5 L49.5 199.5" fill="none" stroke="#176bc0" stroke-width="0.8"/><text class="marker-name" transform="translate(55 193.5) rotate(0)" y="3.5" text-anchor="middle" font-size="10" textLength="22" lengthAdjust="spacingAndGlyphs" fill="#176bc0">+3V3</text><path d="M70 180 L70 170" fill="none" stroke="#07814d" stroke-width="0.8"/><path d="M70 170 L70 165.5" fill="none" stroke="#176bc0" stroke-width="0.8"/><path d="M70 165.5 L70 159.5" fill="none" stroke="#176bc0" stroke-width="0.8"/><path d="M75.5 159.5 L64.5 159.5" fill="none" stroke="#176bc0" stroke-width="0.8"/><text class="marker-name" transform="translate(70 153.5) rotate(0)" y="3.5" text-anchor="middle" font-size="10" textLength="16" lengthAdjust="spacingAndGlyphs" fill="#176bc0">+5V</text><path d="M170 200 L170 190" fill="none" stroke="#07814d" stroke-width="0.8"/><path d="M170 190 L170 185.5" fill="none" stroke="#176bc0" stroke-width="0.8"/><path d="M170 185.5 L170 179.5" fill="none" stroke="#176bc0" stroke-width="0.8"/><path d="M175.5 179.5 L164.5 179.5" fill="none" stroke="#176bc0" stroke-width="0.8"/><text class="marker-name" transform="translate(170 173.5) rotate(0)" y="3.5" text-anchor="middle" font-size="10" textLength="22" lengthAdjust="spacingAndGlyphs" fill="#176bc0">+3V3</text><circle class="junction" cx="70" cy="260" r="1.6" fill="#07814d"/><circle class="junction" cx="70" cy="180" r="1.6" fill="#07814d"/><circle class="junction" cx="170" cy="220" r="1.6" fill="#07814d"/><circle class="junction" cx="170" cy="200" r="1.6" fill="#07814d"/></g></svg>
