<svg xmlns="http://www.w3.org/2000/svg" width="1340" height="1340" viewBox="0 0 670 670"><rect width="100%" height="100%" fill="#f8fafc"/><g font-family="Arial,PingFang SC,sans-serif"><text x="20" y="28" font-size="20" fill="#22344d" text-anchor="start">esp32-mcu-mcu · 布局预览</text><text x="20" y="49" font-size="9" fill="#546579" text-anchor="start">离线转译 / 简化符号 / 非仿真、非官方导图</text><text x="20" y="65" font-size="9" fill="#546579" text-anchor="start">只转译输入几何；离线预览不等于现场 Apply 验收。</text><text x="20" y="95" font-size="9" fill="#aa00aa" text-anchor="start">预案 · 6 个器件</text><rect x="20" y="110" width="345" height="540" fill="white" stroke="#aa00aa" stroke-dasharray="5 3"/><text x="30" y="136" font-size="20" fill="#aa00aa" text-anchor="start">esp32-mcu-mcu</text><path d="M295 565 L290 565" fill="none" stroke="#07814d" stroke-width="0.8"/><path d="M290 605 L295 605" fill="none" stroke="#07814d" stroke-width="0.8"/><path d="M195 395 L195 390" fill="none" stroke="#07814d" stroke-width="0.8"/><path d="M195 390 L200 390" fill="none" stroke="#07814d" stroke-width="0.8"/><path d="M165 395 L170 395" fill="none" stroke="#07814d" stroke-width="0.8"/><path d="M170 395 L195 395" fill="none" stroke="#07814d" stroke-width="0.8"/><path d="M115 395 L115 400" fill="none" stroke="#07814d" stroke-width="0.8"/><path d="M115 400 L165 400" fill="none" stroke="#07814d" stroke-width="0.8"/><path d="M165 400 L165 395" fill="none" stroke="#07814d" stroke-width="0.8"/><path d="M165 395 L165 390" fill="none" stroke="#07814d" stroke-width="0.8"/><path d="M320 205 L320 200" fill="none" stroke="#07814d" stroke-width="0.8"/><path d="M320 200 L295 200" fill="none" stroke="#07814d" stroke-width="0.8"/><path d="M115.00000000000006 315 L120.00000000000006 315" fill="none" stroke="#07814d" stroke-width="0.8"/><path d="M120.00000000000006 315 L120.00000000000006 350" fill="none" stroke="#07814d" stroke-width="0.8"/><path d="M120.00000000000006 350 L115.00000000000006 350" fill="none" stroke="#07814d" stroke-width="0.8"/><path d="M115.00000000000006 350 L115.00000000000006 355" fill="none" stroke="#07814d" stroke-width="0.8"/><path d="M200 400 L175 400" fill="none" stroke="#07814d" stroke-width="0.8"/><path d="M175 400 L175 405" fill="none" stroke="#07814d" stroke-width="0.8"/><path d="M175 405 L120 405" fill="none" stroke="#07814d" stroke-width="0.8"/><path d="M120 405 L120 350" fill="none" stroke="#07814d" stroke-width="0.8"/><path d="M290 575 L295 575" fill="none" stroke="#07814d" stroke-width="0.8"/><path d="M295 605 L295 575" fill="none" stroke="#07814d" stroke-width="0.8"/><path d="M295 575 L295 565" fill="none" stroke="#07814d" stroke-width="0.8"/><path d="M165 430 L170 430" fill="none" stroke="#07814d" stroke-width="0.8"/><path d="M170 435 L170 430" fill="none" stroke="#07814d" stroke-width="0.8"/><path d="M170 430 L170 395" fill="none" stroke="#07814d" stroke-width="0.8"/><path d="M290 205 L295 205" fill="none" stroke="#07814d" stroke-width="0.8"/><path d="M295 205 L295 200" fill="none" stroke="#07814d" stroke-width="0.8"/><path d="M200 410 L190 410" fill="none" stroke="#07814d" stroke-width="0.8"/><path d="M190 410 L190 405" fill="none" stroke="#07814d" stroke-width="0.8"/><path d="M200 420 L195 420" fill="none" stroke="#07814d" stroke-width="0.8"/><path d="M195 420 L195 425" fill="none" stroke="#07814d" stroke-width="0.8"/><path d="M290 225 L305 225" fill="none" stroke="#07814d" stroke-width="0.8"/><path d="M305 225 L305 230" fill="none" stroke="#07814d" stroke-width="0.8"/><rect x="209.5" y="194.5" width="71" height="421" fill="white" stroke="#34445b" stroke-width="0.8"/><text x="209.5" y="190.5" font-size="7" fill="#24344a" text-anchor="start">U3</text><text x="209.5" y="624.5" font-size="5" fill="#546579" text-anchor="start"></text><path d="M280.5 565 L290 565" fill="none" stroke="#34445b" stroke-width="0.8"/><text x="278.5" y="566.5" font-size="4.5" fill="#34445b" text-anchor="end">GND</text><circle cx="290" cy="565" r="1.1" fill="#34445b"><title>U3.1 GND</title></circle><path d="M280.5 375 L290 375" fill="none" stroke="#34445b" stroke-width="0.8"/><text x="278.5" y="376.5" font-size="4.5" fill="#34445b" text-anchor="end">IO17</text><circle cx="290" cy="375" r="1.1" fill="#34445b"><title>U3.10 </title></circle><path d="M288 377 L292 373" fill="none" stroke="#c53b45" stroke-width="0.8"/><path d="M288 373 L292 377" fill="none" stroke="#c53b45" stroke-width="0.8"/><path d="M280.5 385 L290 385" fill="none" stroke="#34445b" stroke-width="0.8"/><text x="278.5" y="386.5" font-size="4.5" fill="#34445b" text-anchor="end">IO18</text><circle cx="290" cy="385" r="1.1" fill="#34445b"><title>U3.11 </title></circle><path d="M288 387 L292 383" fill="none" stroke="#c53b45" stroke-width="0.8"/><path d="M288 383 L292 387" fill="none" stroke="#c53b45" stroke-width="0.8"/><path d="M280.5 285 L290 285" fill="none" stroke="#34445b" stroke-width="0.8"/><text x="278.5" y="286.5" font-size="4.5" fill="#34445b" text-anchor="end">IO8</text><circle cx="290" cy="285" r="1.1" fill="#34445b"><title>U3.12 </title></circle><path d="M288 287 L292 283" fill="none" stroke="#c53b45" stroke-width="0.8"/><path d="M288 283 L292 287" fill="none" stroke="#c53b45" stroke-width="0.8"/><path d="M280.5 395 L290 395" fill="none" stroke="#34445b" stroke-width="0.8"/><text x="278.5" y="396.5" font-size="4.5" fill="#34445b" text-anchor="end">IO19</text><circle cx="290" cy="395" r="1.1" fill="#34445b"><title>U3.13 </title></circle><path d="M288 397 L292 393" fill="none" stroke="#c53b45" stroke-width="0.8"/><path d="M288 393 L292 397" fill="none" stroke="#c53b45" stroke-width="0.8"/><path d="M280.5 405 L290 405" fill="none" stroke="#34445b" stroke-width="0.8"/><text x="278.5" y="406.5" font-size="4.5" fill="#34445b" text-anchor="end">IO20</text><circle cx="290" cy="405" r="1.1" fill="#34445b"><title>U3.14 </title></circle><path d="M288 407 L292 403" fill="none" stroke="#c53b45" stroke-width="0.8"/><path d="M288 403 L292 407" fill="none" stroke="#c53b45" stroke-width="0.8"/><path d="M280.5 235 L290 235" fill="none" stroke="#34445b" stroke-width="0.8"/><text x="278.5" y="236.5" font-size="4.5" fill="#34445b" text-anchor="end">IO3</text><circle cx="290" cy="235" r="1.1" fill="#34445b"><title>U3.15 </title></circle><path d="M288 237 L292 233" fill="none" stroke="#c53b45" stroke-width="0.8"/><path d="M288 233 L292 237" fill="none" stroke="#c53b45" stroke-width="0.8"/><path d="M280.5 515 L290 515" fill="none" stroke="#34445b" stroke-width="0.8"/><text x="278.5" y="516.5" font-size="4.5" fill="#34445b" text-anchor="end">IO46</text><circle cx="290" cy="515" r="1.1" fill="#34445b"><title>U3.16 </title></circle><path d="M288 517 L292 513" fill="none" stroke="#c53b45" stroke-width="0.8"/><path d="M288 513 L292 517" fill="none" stroke="#c53b45" stroke-width="0.8"/><path d="M280.5 295 L290 295" fill="none" stroke="#34445b" stroke-width="0.8"/><text x="278.5" y="296.5" font-size="4.5" fill="#34445b" text-anchor="end">IO9</text><circle cx="290" cy="295" r="1.1" fill="#34445b"><title>U3.17 </title></circle><path d="M288 297 L292 293" fill="none" stroke="#c53b45" stroke-width="0.8"/><path d="M288 293 L292 297" fill="none" stroke="#c53b45" stroke-width="0.8"/><path d="M280.5 305 L290 305" fill="none" stroke="#34445b" stroke-width="0.8"/><text x="278.5" y="306.5" font-size="4.5" fill="#34445b" text-anchor="end">IO10</text><circle cx="290" cy="305" r="1.1" fill="#34445b"><title>U3.18 </title></circle><path d="M288 307 L292 303" fill="none" stroke="#c53b45" stroke-width="0.8"/><path d="M288 303 L292 307" fill="none" stroke="#c53b45" stroke-width="0.8"/><path d="M280.5 315 L290 315" fill="none" stroke="#34445b" stroke-width="0.8"/><text x="278.5" y="316.5" font-size="4.5" fill="#34445b" text-anchor="end">IO11</text><circle cx="290" cy="315" r="1.1" fill="#34445b"><title>U3.19 </title></circle><path d="M288 317 L292 313" fill="none" stroke="#c53b45" stroke-width="0.8"/><path d="M288 313 L292 317" fill="none" stroke="#c53b45" stroke-width="0.8"/><path d="M209.5 390 L200 390" fill="none" stroke="#34445b" stroke-width="0.8"/><text x="211.5" y="391.5" font-size="4.5" fill="#34445b" text-anchor="start">3V3</text><circle cx="200" cy="390" r="1.1" fill="#34445b"><title>U3.2 +3V3</title></circle><path d="M280.5 325 L290 325" fill="none" stroke="#34445b" stroke-width="0.8"/><text x="278.5" y="326.5" font-size="4.5" fill="#34445b" text-anchor="end">IO12</text><circle cx="290" cy="325" r="1.1" fill="#34445b"><title>U3.20 </title></circle><path d="M288 327 L292 323" fill="none" stroke="#c53b45" stroke-width="0.8"/><path d="M288 323 L292 327" fill="none" stroke="#c53b45" stroke-width="0.8"/><path d="M280.5 335 L290 335" fill="none" stroke="#34445b" stroke-width="0.8"/><text x="278.5" y="336.5" font-size="4.5" fill="#34445b" text-anchor="end">IO13</text><circle cx="290" cy="335" r="1.1" fill="#34445b"><title>U3.21 </title></circle><path d="M288 337 L292 333" fill="none" stroke="#c53b45" stroke-width="0.8"/><path d="M288 333 L292 337" fill="none" stroke="#c53b45" stroke-width="0.8"/><path d="M280.5 345 L290 345" fill="none" stroke="#34445b" stroke-width="0.8"/><text x="278.5" y="346.5" font-size="4.5" fill="#34445b" text-anchor="end">IO14</text><circle cx="290" cy="345" r="1.1" fill="#34445b"><title>U3.22 </title></circle><path d="M288 347 L292 343" fill="none" stroke="#c53b45" stroke-width="0.8"/><path d="M288 343 L292 347" fill="none" stroke="#c53b45" stroke-width="0.8"/><path d="M280.5 415 L290 415" fill="none" stroke="#34445b" stroke-width="0.8"/><text x="278.5" y="416.5" font-size="4.5" fill="#34445b" text-anchor="end">IO21</text><circle cx="290" cy="415" r="1.1" fill="#34445b"><title>U3.23 </title></circle><path d="M288 417 L292 413" fill="none" stroke="#c53b45" stroke-width="0.8"/><path d="M288 413 L292 417" fill="none" stroke="#c53b45" stroke-width="0.8"/><path d="M280.5 525 L290 525" fill="none" stroke="#34445b" stroke-width="0.8"/><text x="278.5" y="526.5" font-size="4.5" fill="#34445b" text-anchor="end">IO47</text><circle cx="290" cy="525" r="1.1" fill="#34445b"><title>U3.24 </title></circle><path d="M288 527 L292 523" fill="none" stroke="#c53b45" stroke-width="0.8"/><path d="M288 523 L292 527" fill="none" stroke="#c53b45" stroke-width="0.8"/><path d="M280.5 535 L290 535" fill="none" stroke="#34445b" stroke-width="0.8"/><text x="278.5" y="536.5" font-size="4.5" fill="#34445b" text-anchor="end">IO48</text><circle cx="290" cy="535" r="1.1" fill="#34445b"><title>U3.25 </title></circle><path d="M288 537 L292 533" fill="none" stroke="#c53b45" stroke-width="0.8"/><path d="M288 533 L292 537" fill="none" stroke="#c53b45" stroke-width="0.8"/><path d="M280.5 505 L290 505" fill="none" stroke="#34445b" stroke-width="0.8"/><text x="278.5" y="506.5" font-size="4.5" fill="#34445b" text-anchor="end">IO45</text><circle cx="290" cy="505" r="1.1" fill="#34445b"><title>U3.26 </title></circle><path d="M288 507 L292 503" fill="none" stroke="#c53b45" stroke-width="0.8"/><path d="M288 503 L292 507" fill="none" stroke="#c53b45" stroke-width="0.8"/><path d="M280.5 205 L290 205" fill="none" stroke="#34445b" stroke-width="0.8"/><text x="278.5" y="206.5" font-size="4.5" fill="#34445b" text-anchor="end">IO0</text><circle cx="290" cy="205" r="1.1" fill="#34445b"><title>U3.27 IO0</title></circle><path d="M280.5 425 L290 425" fill="none" stroke="#34445b" stroke-width="0.8"/><text x="278.5" y="426.5" font-size="4.5" fill="#34445b" text-anchor="end">IO35</text><circle cx="290" cy="425" r="1.1" fill="#34445b"><title>U3.28 </title></circle><path d="M288 427 L292 423" fill="none" stroke="#c53b45" stroke-width="0.8"/><path d="M288 423 L292 427" fill="none" stroke="#c53b45" stroke-width="0.8"/><path d="M280.5 435 L290 435" fill="none" stroke="#34445b" stroke-width="0.8"/><text x="278.5" y="436.5" font-size="4.5" fill="#34445b" text-anchor="end">IO36</text><circle cx="290" cy="435" r="1.1" fill="#34445b"><title>U3.29 </title></circle><path d="M288 437 L292 433" fill="none" stroke="#c53b45" stroke-width="0.8"/><path d="M288 433 L292 437" fill="none" stroke="#c53b45" stroke-width="0.8"/><path d="M209.5 400 L200 400" fill="none" stroke="#34445b" stroke-width="0.8"/><text x="211.5" y="401.5" font-size="4.5" fill="#34445b" text-anchor="start">EN</text><circle cx="200" cy="400" r="1.1" fill="#34445b"><title>U3.3 EN</title></circle><path d="M280.5 445 L290 445" fill="none" stroke="#34445b" stroke-width="0.8"/><text x="278.5" y="446.5" font-size="4.5" fill="#34445b" text-anchor="end">IO37</text><circle cx="290" cy="445" r="1.1" fill="#34445b"><title>U3.30 </title></circle><path d="M288 447 L292 443" fill="none" stroke="#c53b45" stroke-width="0.8"/><path d="M288 443 L292 447" fill="none" stroke="#c53b45" stroke-width="0.8"/><path d="M280.5 455 L290 455" fill="none" stroke="#34445b" stroke-width="0.8"/><text x="278.5" y="456.5" font-size="4.5" fill="#34445b" text-anchor="end">IO38</text><circle cx="290" cy="455" r="1.1" fill="#34445b"><title>U3.31 </title></circle><path d="M288 457 L292 453" fill="none" stroke="#c53b45" stroke-width="0.8"/><path d="M288 453 L292 457" fill="none" stroke="#c53b45" stroke-width="0.8"/><path d="M280.5 465 L290 465" fill="none" stroke="#34445b" stroke-width="0.8"/><text x="278.5" y="466.5" font-size="4.5" fill="#34445b" text-anchor="end">IO39</text><circle cx="290" cy="465" r="1.1" fill="#34445b"><title>U3.32 </title></circle><path d="M288 467 L292 463" fill="none" stroke="#c53b45" stroke-width="0.8"/><path d="M288 463 L292 467" fill="none" stroke="#c53b45" stroke-width="0.8"/><path d="M280.5 475 L290 475" fill="none" stroke="#34445b" stroke-width="0.8"/><text x="278.5" y="476.5" font-size="4.5" fill="#34445b" text-anchor="end">IO40</text><circle cx="290" cy="475" r="1.1" fill="#34445b"><title>U3.33 </title></circle><path d="M288 477 L292 473" fill="none" stroke="#c53b45" stroke-width="0.8"/><path d="M288 473 L292 477" fill="none" stroke="#c53b45" stroke-width="0.8"/><path d="M280.5 485 L290 485" fill="none" stroke="#34445b" stroke-width="0.8"/><text x="278.5" y="486.5" font-size="4.5" fill="#34445b" text-anchor="end">IO41</text><circle cx="290" cy="485" r="1.1" fill="#34445b"><title>U3.34 </title></circle><path d="M288 487 L292 483" fill="none" stroke="#c53b45" stroke-width="0.8"/><path d="M288 483 L292 487" fill="none" stroke="#c53b45" stroke-width="0.8"/><path d="M280.5 495 L290 495" fill="none" stroke="#34445b" stroke-width="0.8"/><text x="278.5" y="496.5" font-size="4.5" fill="#34445b" text-anchor="end">IO42</text><circle cx="290" cy="495" r="1.1" fill="#34445b"><title>U3.35 </title></circle><path d="M288 497 L292 493" fill="none" stroke="#c53b45" stroke-width="0.8"/><path d="M288 493 L292 497" fill="none" stroke="#c53b45" stroke-width="0.8"/><path d="M209.5 410 L200 410" fill="none" stroke="#34445b" stroke-width="0.8"/><text x="211.5" y="411.5" font-size="4.5" fill="#34445b" text-anchor="start">RXD0</text><circle cx="200" cy="410" r="1.1" fill="#34445b"><title>U3.36 U0RXD</title></circle><path d="M209.5 420 L200 420" fill="none" stroke="#34445b" stroke-width="0.8"/><text x="211.5" y="421.5" font-size="4.5" fill="#34445b" text-anchor="start">TXD0</text><circle cx="200" cy="420" r="1.1" fill="#34445b"><title>U3.37 U0TXD</title></circle><path d="M280.5 225 L290 225" fill="none" stroke="#34445b" stroke-width="0.8"/><text x="278.5" y="226.5" font-size="4.5" fill="#34445b" text-anchor="end">IO2</text><circle cx="290" cy="225" r="1.1" fill="#34445b"><title>U3.38 LED_CTRL</title></circle><path d="M280.5 215 L290 215" fill="none" stroke="#34445b" stroke-width="0.8"/><text x="278.5" y="216.5" font-size="4.5" fill="#34445b" text-anchor="end">IO1</text><circle cx="290" cy="215" r="1.1" fill="#34445b"><title>U3.39 </title></circle><path d="M288 217 L292 213" fill="none" stroke="#c53b45" stroke-width="0.8"/><path d="M288 213 L292 217" fill="none" stroke="#c53b45" stroke-width="0.8"/><path d="M280.5 245 L290 245" fill="none" stroke="#34445b" stroke-width="0.8"/><text x="278.5" y="246.5" font-size="4.5" fill="#34445b" text-anchor="end">IO4</text><circle cx="290" cy="245" r="1.1" fill="#34445b"><title>U3.4 </title></circle><path d="M288 247 L292 243" fill="none" stroke="#c53b45" stroke-width="0.8"/><path d="M288 243 L292 247" fill="none" stroke="#c53b45" stroke-width="0.8"/><path d="M280.5 575 L290 575" fill="none" stroke="#34445b" stroke-width="0.8"/><text x="278.5" y="576.5" font-size="4.5" fill="#34445b" text-anchor="end">GND</text><circle cx="290" cy="575" r="1.1" fill="#34445b"><title>U3.40 GND</title></circle><path d="M280.5 605 L290 605" fill="none" stroke="#34445b" stroke-width="0.8"/><text x="278.5" y="606.5" font-size="4.5" fill="#34445b" text-anchor="end">EPAD</text><circle cx="290" cy="605" r="1.1" fill="#34445b"><title>U3.41 GND</title></circle><path d="M280.5 255 L290 255" fill="none" stroke="#34445b" stroke-width="0.8"/><text x="278.5" y="256.5" font-size="4.5" fill="#34445b" text-anchor="end">IO5</text><circle cx="290" cy="255" r="1.1" fill="#34445b"><title>U3.5 </title></circle><path d="M288 257 L292 253" fill="none" stroke="#c53b45" stroke-width="0.8"/><path d="M288 253 L292 257" fill="none" stroke="#c53b45" stroke-width="0.8"/><path d="M280.5 265 L290 265" fill="none" stroke="#34445b" stroke-width="0.8"/><text x="278.5" y="266.5" font-size="4.5" fill="#34445b" text-anchor="end">IO6</text><circle cx="290" cy="265" r="1.1" fill="#34445b"><title>U3.6 </title></circle><path d="M288 267 L292 263" fill="none" stroke="#c53b45" stroke-width="0.8"/><path d="M288 263 L292 267" fill="none" stroke="#c53b45" stroke-width="0.8"/><path d="M280.5 275 L290 275" fill="none" stroke="#34445b" stroke-width="0.8"/><text x="278.5" y="276.5" font-size="4.5" fill="#34445b" text-anchor="end">IO7</text><circle cx="290" cy="275" r="1.1" fill="#34445b"><title>U3.7 </title></circle><path d="M288 277 L292 273" fill="none" stroke="#c53b45" stroke-width="0.8"/><path d="M288 273 L292 277" fill="none" stroke="#c53b45" stroke-width="0.8"/><path d="M280.5 355 L290 355" fill="none" stroke="#34445b" stroke-width="0.8"/><text x="278.5" y="356.5" font-size="4.5" fill="#34445b" text-anchor="end">IO15</text><circle cx="290" cy="355" r="1.1" fill="#34445b"><title>U3.8 </title></circle><path d="M288 357 L292 353" fill="none" stroke="#c53b45" stroke-width="0.8"/><path d="M288 353 L292 357" fill="none" stroke="#c53b45" stroke-width="0.8"/><path d="M280.5 365 L290 365" fill="none" stroke="#34445b" stroke-width="0.8"/><text x="278.5" y="366.5" font-size="4.5" fill="#34445b" text-anchor="end">IO16</text><circle cx="290" cy="365" r="1.1" fill="#34445b"><title>U3.9 </title></circle><path d="M288 367 L292 363" fill="none" stroke="#c53b45" stroke-width="0.8"/><path d="M288 363 L292 367" fill="none" stroke="#c53b45" stroke-width="0.8"/><rect x="156.5" y="359.5" width="17" height="21" fill="white" stroke="#34445b" stroke-width="0.8"/><text x="156.5" y="355.5" font-size="7" fill="#24344a" text-anchor="start">C5</text><text x="156.5" y="389.5" font-size="5" fill="#546579" text-anchor="start"></text><path d="M165 380.5 L165 390" fill="none" stroke="#34445b" stroke-width="0.8"/><text x="165" y="382" font-size="4.5" fill="#34445b" text-anchor="middle">1</text><circle cx="165" cy="390" r="1.1" fill="#34445b"><title>C5.1 +3V3</title></circle><path d="M165 359.5 L165 350" fill="none" stroke="#34445b" stroke-width="0.8"/><text x="165" y="361" font-size="4.5" fill="#34445b" text-anchor="middle">2</text><circle cx="165" cy="350" r="1.1" fill="#34445b"><title>C5.2 GND</title></circle><rect x="134.5" y="421.5" width="21" height="17" fill="white" stroke="#34445b" stroke-width="0.8"/><text x="134.5" y="417.5" font-size="7" fill="#24344a" text-anchor="start">C6</text><text x="134.5" y="447.5" font-size="5" fill="#546579" text-anchor="start"></text><path d="M155.5 430 L165 430" fill="none" stroke="#34445b" stroke-width="0.8"/><text x="153.5" y="431.5" font-size="4.5" fill="#34445b" text-anchor="end">1</text><circle cx="165" cy="430" r="1.1" fill="#34445b"><title>C6.1 +3V3</title></circle><path d="M134.5 430 L125 430" fill="none" stroke="#34445b" stroke-width="0.8"/><text x="136.5" y="431.5" font-size="4.5" fill="#34445b" text-anchor="start">2</text><circle cx="125" cy="430" r="1.1" fill="#34445b"><title>C6.2 GND</title></circle><rect x="110.5" y="364.5" width="9.000000000000057" height="21" fill="white" stroke="#34445b" stroke-width="0.8"/><text x="110.5" y="360.5" font-size="7" fill="#24344a" text-anchor="start">R5</text><text x="110.5" y="394.5" font-size="5" fill="#546579" text-anchor="start"></text><path d="M115.00000000000006 364.5 L115.00000000000006 355" fill="none" stroke="#34445b" stroke-width="0.8"/><text x="115.00000000000006" y="366" font-size="4.5" fill="#34445b" text-anchor="middle">1</text><circle cx="115.00000000000006" cy="355" r="1.1" fill="#34445b"><title>R5.1 EN</title></circle><path d="M115 385.5 L115 395" fill="none" stroke="#34445b" stroke-width="0.8"/><text x="115" y="387" font-size="4.5" fill="#34445b" text-anchor="middle">2</text><circle cx="115" cy="395" r="1.1" fill="#34445b"><title>R5.2 +3V3</title></circle><rect x="84.50000000000006" y="306.5" width="21" height="17" fill="white" stroke="#34445b" stroke-width="0.8"/><text x="84.50000000000006" y="302.5" font-size="7" fill="#24344a" text-anchor="start">C7</text><text x="84.50000000000006" y="332.5" font-size="5" fill="#546579" text-anchor="start"></text><path d="M105.50000000000006 315 L115.00000000000006 315" fill="none" stroke="#34445b" stroke-width="0.8"/><text x="103.50000000000006" y="316.5" font-size="4.5" fill="#34445b" text-anchor="end">1</text><circle cx="115.00000000000006" cy="315" r="1.1" fill="#34445b"><title>C7.1 EN</title></circle><path d="M84.50000000000006 315 L75.00000000000006 315" fill="none" stroke="#34445b" stroke-width="0.8"/><text x="86.50000000000006" y="316.5" font-size="4.5" fill="#34445b" text-anchor="start">2</text><circle cx="75.00000000000006" cy="315" r="1.1" fill="#34445b"><title>C7.2 GND</title></circle><rect x="315.5" y="214.5" width="9" height="21" fill="white" stroke="#34445b" stroke-width="0.8"/><text x="315.5" y="210.5" font-size="7" fill="#24344a" text-anchor="start">R6</text><text x="315.5" y="244.5" font-size="5" fill="#546579" text-anchor="start"></text><path d="M320 214.5 L320 205" fill="none" stroke="#34445b" stroke-width="0.8"/><text x="320" y="216" font-size="4.5" fill="#34445b" text-anchor="middle">1</text><circle cx="320" cy="205" r="1.1" fill="#34445b"><title>R6.1 IO0</title></circle><path d="M319.9999999999999 235.5 L319.9999999999999 245" fill="none" stroke="#34445b" stroke-width="0.8"/><text x="319.9999999999999" y="237" font-size="4.5" fill="#34445b" text-anchor="middle">2</text><circle cx="319.9999999999999" cy="245" r="1.1" fill="#34445b"><title>R6.2 +3V3</title></circle><path d="M295 570 L315 570" fill="none" stroke="#07814d" stroke-width="0.8"/><path d="M315 570 L324.5 570" fill="none" stroke="#176bc0" stroke-width="0.8"/><path d="M324.5 580.5 L324.5 559.5" fill="none" stroke="#176bc0" stroke-width="0.8"/><path d="M329.5 577 L329.5 563" fill="none" stroke="#176bc0" stroke-width="0.8"/><path d="M334.5 573.5 L334.5 566.5" fill="none" stroke="#176bc0" stroke-width="0.8"/><text class="marker-name" transform="translate(306 564) rotate(0)" y="3.5" text-anchor="middle" font-size="10" textLength="16" lengthAdjust="spacingAndGlyphs" fill="#176bc0">GND</text><path d="M165 350 L165 340" fill="none" stroke="#07814d" stroke-width="0.8"/><path d="M165 340 L165 330.5" fill="none" stroke="#176bc0" stroke-width="0.8"/><path d="M175.5 330.5 L154.5 330.5" fill="none" stroke="#176bc0" stroke-width="0.8"/><path d="M172 325.5 L158 325.5" fill="none" stroke="#176bc0" stroke-width="0.8"/><path d="M168.5 320.5 L161.5 320.5" fill="none" stroke="#176bc0" stroke-width="0.8"/><text class="marker-name" transform="translate(165 314.5) rotate(0)" y="3.5" text-anchor="middle" font-size="10" textLength="16" lengthAdjust="spacingAndGlyphs" fill="#176bc0">GND</text><path d="M125 430 L100 430" fill="none" stroke="#07814d" stroke-width="0.8"/><path d="M100 430 L90.5 430" fill="none" stroke="#176bc0" stroke-width="0.8"/><path d="M90.5 419.5 L90.5 440.5" fill="none" stroke="#176bc0" stroke-width="0.8"/><path d="M85.5 423 L85.5 437" fill="none" stroke="#176bc0" stroke-width="0.8"/><path d="M80.5 426.5 L80.5 433.5" fill="none" stroke="#176bc0" stroke-width="0.8"/><text class="marker-name" transform="translate(109 424) rotate(0)" y="3.5" text-anchor="middle" font-size="10" textLength="16" lengthAdjust="spacingAndGlyphs" fill="#176bc0">GND</text><path d="M75.00000000000006 315 L50 315" fill="none" stroke="#07814d" stroke-width="0.8"/><path d="M50 315 L40.5 315" fill="none" stroke="#176bc0" stroke-width="0.8"/><path d="M40.5 304.5 L40.5 325.5" fill="none" stroke="#176bc0" stroke-width="0.8"/><path d="M35.5 308 L35.5 322" fill="none" stroke="#176bc0" stroke-width="0.8"/><path d="M30.5 311.5 L30.5 318.5" fill="none" stroke="#176bc0" stroke-width="0.8"/><text class="marker-name" transform="translate(59 309) rotate(0)" y="3.5" text-anchor="middle" font-size="10" textLength="16" lengthAdjust="spacingAndGlyphs" fill="#176bc0">GND</text><path d="M170 435 L170 445" fill="none" stroke="#07814d" stroke-width="0.8"/><path d="M170 445 L170 449.5" fill="none" stroke="#176bc0" stroke-width="0.8"/><path d="M170 449.5 L170 455.5" fill="none" stroke="#176bc0" stroke-width="0.8"/><path d="M164.5 455.5 L175.5 455.5" fill="none" stroke="#176bc0" stroke-width="0.8"/><text class="marker-name" transform="translate(170 461.5) rotate(0)" y="3.5" text-anchor="middle" font-size="10" textLength="22" lengthAdjust="spacingAndGlyphs" fill="#176bc0">+3V3</text><path d="M319.9999999999999 245 L319.9999999999999 255" fill="none" stroke="#07814d" stroke-width="0.8"/><path d="M319.9999999999999 255 L319.9999999999999 259.5" fill="none" stroke="#176bc0" stroke-width="0.8"/><path d="M319.9999999999999 259.5 L319.9999999999999 265.5" fill="none" stroke="#176bc0" stroke-width="0.8"/><path d="M314.4999999999999 265.5 L325.4999999999999 265.5" fill="none" stroke="#176bc0" stroke-width="0.8"/><text class="marker-name" transform="translate(319.9999999999999 271.5) rotate(0)" y="3.5" text-anchor="middle" font-size="10" textLength="22" lengthAdjust="spacingAndGlyphs" fill="#176bc0">+3V3</text><path d="M295 200 L295 190" fill="none" stroke="#07814d" stroke-width="0.8"/><path d="M295 190 L295 180.5" fill="none" stroke="#176bc0" stroke-width="0.8"/><polygon class="net-port" points="295,180.5 289.5,175.5 289.5,154.5 295,149.5 300.5,154.5 300.5,175.5 " fill="none" stroke="#176bc0" stroke-width="0.8"/><text class="marker-name" transform="translate(295 136.5) rotate(-90)" y="3.5" text-anchor="middle" font-size="10" textLength="24" lengthAdjust="spacingAndGlyphs" fill="#176bc0">IO0</text><path d="M120 405 L110 405" fill="none" stroke="#07814d" stroke-width="0.8"/><path d="M110 405 L100.5 405" fill="none" stroke="#176bc0" stroke-width="0.8"/><polygon class="net-port" points="100.5,405 95.5,410.5 74.5,410.5 69.5,405 74.5,399.5 95.5,399.5 " fill="none" stroke="#176bc0" stroke-width="0.8"/><text class="marker-name" transform="translate(59.5 405) rotate(0)" y="3.5" text-anchor="middle" font-size="10" textLength="18" lengthAdjust="spacingAndGlyphs" fill="#176bc0">EN</text><path d="M190 405 L190 390" fill="none" stroke="#07814d" stroke-width="0.8"/><path d="M190 390 L190 380.5" fill="none" stroke="#176bc0" stroke-width="0.8"/><polygon class="net-port" points="190,380.5 184.5,375.5 184.5,354.5 190,349.5 195.5,354.5 195.5,375.5 " fill="none" stroke="#176bc0" stroke-width="0.8"/><text class="marker-name" transform="translate(190 330.5) rotate(-90)" y="3.5" text-anchor="middle" font-size="10" textLength="36" lengthAdjust="spacingAndGlyphs" fill="#176bc0">U0RXD</text><path d="M195 425 L195 435" fill="none" stroke="#07814d" stroke-width="0.8"/><path d="M195 435 L195 444.5" fill="none" stroke="#176bc0" stroke-width="0.8"/><polygon class="net-port" points="195,444.5 200.5,449.5 200.5,470.5 195,475.5 189.5,470.5 189.5,449.5 " fill="none" stroke="#176bc0" stroke-width="0.8"/><text class="marker-name" transform="translate(195 494.5) rotate(90)" y="3.5" text-anchor="middle" font-size="10" textLength="36" lengthAdjust="spacingAndGlyphs" fill="#176bc0">U0TXD</text><path d="M305 230 L305 275" fill="none" stroke="#07814d" stroke-width="0.8"/><path d="M305 275 L305 284.5" fill="none" stroke="#176bc0" stroke-width="0.8"/><polygon class="net-port" points="305,284.5 310.5,289.5 310.5,310.5 305,315.5 299.5,310.5 299.5,289.5 " fill="none" stroke="#176bc0" stroke-width="0.8"/><text class="marker-name" transform="translate(305 343.5) rotate(90)" y="3.5" text-anchor="middle" font-size="10" textLength="54" lengthAdjust="spacingAndGlyphs" fill="#176bc0">LED_CTRL</text><circle class="junction" cx="120" cy="405" r="1.6" fill="#07814d"/><circle class="junction" cx="120" cy="350" r="1.6" fill="#07814d"/><circle class="junction" cx="120.00000000000006" cy="350" r="1.6" fill="#07814d"/><circle class="junction" cx="165" cy="395" r="1.6" fill="#07814d"/><circle class="junction" cx="170" cy="430" r="1.6" fill="#07814d"/><circle class="junction" cx="170" cy="395" r="1.6" fill="#07814d"/><circle class="junction" cx="295" cy="575" r="1.6" fill="#07814d"/><circle class="junction" cx="295" cy="570" r="1.6" fill="#07814d"/><circle class="junction" cx="295" cy="200" r="1.6" fill="#07814d"/></g></svg>
