<svg xmlns="http://www.w3.org/2000/svg" width="830" height="830" viewBox="0 0 415 415"><rect width="100%" height="100%" fill="#f8fafc"/><g font-family="Arial,PingFang SC,sans-serif"><text x="20" y="28" font-size="20" fill="#22344d" text-anchor="start">esp32-mcu-autodl · 布局预览</text><text x="20" y="49" font-size="9" fill="#546579" text-anchor="start">离线转译 / 简化符号 / 非仿真、非官方导图</text><text x="20" y="65" font-size="9" fill="#546579" text-anchor="start">只转译输入几何；离线预览不等于现场 Apply 验收。</text><text x="20" y="95" font-size="9" fill="#aa00aa" text-anchor="start">预案 · 4 个器件</text><rect x="20" y="110" width="230" height="285" fill="white" stroke="#aa00aa" stroke-dasharray="5 3"/><text x="30" y="136" font-size="20" fill="#aa00aa" text-anchor="start">esp32-mcu-autodl</text><path d="M165 280 L185 280" fill="none" stroke="#07814d" stroke-width="0.8"/><path d="M80 240 L100 240" fill="none" stroke="#07814d" stroke-width="0.8"/><path d="M120 260 L120 280" fill="none" stroke="#07814d" stroke-width="0.8"/><path d="M120 280 L125 280" fill="none" stroke="#07814d" stroke-width="0.8"/><path d="M40 240 L35 240" fill="none" stroke="#07814d" stroke-width="0.8"/><path d="M35 240 L35 305" fill="none" stroke="#07814d" stroke-width="0.8"/><path d="M35 305 L205 305" fill="none" stroke="#07814d" stroke-width="0.8"/><path d="M205 305 L205 300" fill="none" stroke="#07814d" stroke-width="0.8"/><rect x="194.5" y="269.5" width="11" height="21" fill="white" stroke="#34445b" stroke-width="0.8"/><text x="194.5" y="265.5" font-size="7" fill="#24344a" text-anchor="start">Q1</text><text x="194.5" y="299.5" font-size="5" fill="#546579" text-anchor="start"></text><path d="M194.5 280 L185 280" fill="none" stroke="#34445b" stroke-width="0.8"/><text x="196.5" y="281.5" font-size="4.5" fill="#34445b" text-anchor="start">B</text><circle cx="185" cy="280" r="1.1" fill="#34445b"><title>Q1.1 Q1_B</title></circle><path d="M205 290.5 L205 300" fill="none" stroke="#34445b" stroke-width="0.8"/><text x="205" y="292" font-size="4.5" fill="#34445b" text-anchor="middle">E</text><circle cx="205" cy="300" r="1.1" fill="#34445b"><title>Q1.2 DTR</title></circle><path d="M205 269.5 L205 260" fill="none" stroke="#34445b" stroke-width="0.8"/><text x="205" y="271" font-size="4.5" fill="#34445b" text-anchor="middle">C</text><circle cx="205" cy="260" r="1.1" fill="#34445b"><title>Q1.3 IO0</title></circle><rect x="134.5" y="275.5" width="21" height="9" fill="white" stroke="#34445b" stroke-width="0.8"/><text x="134.5" y="271.5" font-size="7" fill="#24344a" text-anchor="start">R8</text><text x="134.5" y="293.5" font-size="5" fill="#546579" text-anchor="start"></text><path d="M134.5 280 L125 280" fill="none" stroke="#34445b" stroke-width="0.8"/><text x="136.5" y="281.5" font-size="4.5" fill="#34445b" text-anchor="start">1</text><circle cx="125" cy="280" r="1.1" fill="#34445b"><title>R8.1 RTS</title></circle><path d="M155.5 280 L165 280" fill="none" stroke="#34445b" stroke-width="0.8"/><text x="153.5" y="281.5" font-size="4.5" fill="#34445b" text-anchor="end">2</text><circle cx="165" cy="280" r="1.1" fill="#34445b"><title>R8.2 Q1_B</title></circle><rect x="109.5" y="229.5" width="11" height="21" fill="white" stroke="#34445b" stroke-width="0.8"/><text x="109.5" y="225.5" font-size="7" fill="#24344a" text-anchor="start">Q2</text><text x="109.5" y="259.5" font-size="5" fill="#546579" text-anchor="start"></text><path d="M109.5 240 L100 240" fill="none" stroke="#34445b" stroke-width="0.8"/><text x="111.5" y="241.5" font-size="4.5" fill="#34445b" text-anchor="start">B</text><circle cx="100" cy="240" r="1.1" fill="#34445b"><title>Q2.1 Q2_B</title></circle><path d="M120 250.5 L120 260" fill="none" stroke="#34445b" stroke-width="0.8"/><text x="120" y="252" font-size="4.5" fill="#34445b" text-anchor="middle">E</text><circle cx="120" cy="260" r="1.1" fill="#34445b"><title>Q2.2 RTS</title></circle><path d="M120 229.5 L120 220" fill="none" stroke="#34445b" stroke-width="0.8"/><text x="120" y="231" font-size="4.5" fill="#34445b" text-anchor="middle">C</text><circle cx="120" cy="220" r="1.1" fill="#34445b"><title>Q2.3 EN</title></circle><rect x="49.5" y="235.5" width="21" height="9" fill="white" stroke="#34445b" stroke-width="0.8"/><text x="49.5" y="231.5" font-size="7" fill="#24344a" text-anchor="start">R9</text><text x="49.5" y="253.5" font-size="5" fill="#546579" text-anchor="start"></text><path d="M49.5 240 L40 240" fill="none" stroke="#34445b" stroke-width="0.8"/><text x="51.5" y="241.5" font-size="4.5" fill="#34445b" text-anchor="start">1</text><circle cx="40" cy="240" r="1.1" fill="#34445b"><title>R9.1 DTR</title></circle><path d="M70.5 240 L80 240" fill="none" stroke="#34445b" stroke-width="0.8"/><text x="68.5" y="241.5" font-size="4.5" fill="#34445b" text-anchor="end">2</text><circle cx="80" cy="240" r="1.1" fill="#34445b"><title>R9.2 Q2_B</title></circle><path d="M175 280 L175 270" fill="none" stroke="#07814d" stroke-width="0.8"/><path d="M175 270 L175 260.5" fill="none" stroke="#176bc0" stroke-width="0.8"/><polygon class="net-port" points="175,260.5 169.5,255.5 169.5,234.5 175,229.5 180.5,234.5 180.5,255.5 " fill="none" stroke="#176bc0" stroke-width="0.8"/><text class="marker-name" transform="translate(175 213.5) rotate(-90)" y="3.5" text-anchor="middle" font-size="10" textLength="30" lengthAdjust="spacingAndGlyphs" fill="#176bc0">Q1_B</text><path d="M120 305 L120 315" fill="none" stroke="#07814d" stroke-width="0.8"/><path d="M120 315 L120 324.5" fill="none" stroke="#176bc0" stroke-width="0.8"/><polygon class="net-port" points="120,324.5 125.5,329.5 125.5,350.5 120,355.5 114.5,350.5 114.5,329.5 " fill="none" stroke="#176bc0" stroke-width="0.8"/><text class="marker-name" transform="translate(120 368.5) rotate(90)" y="3.5" text-anchor="middle" font-size="10" textLength="24" lengthAdjust="spacingAndGlyphs" fill="#176bc0">DTR</text><path d="M205 260 L205 250" fill="none" stroke="#07814d" stroke-width="0.8"/><path d="M205 250 L205 240.5" fill="none" stroke="#176bc0" stroke-width="0.8"/><polygon class="net-port" points="205,240.5 199.5,235.5 199.5,214.5 205,209.5 210.5,214.5 210.5,235.5 " fill="none" stroke="#176bc0" stroke-width="0.8"/><text class="marker-name" transform="translate(205 196.5) rotate(-90)" y="3.5" text-anchor="middle" font-size="10" textLength="24" lengthAdjust="spacingAndGlyphs" fill="#176bc0">IO0</text><path d="M120 270 L110 270" fill="none" stroke="#07814d" stroke-width="0.8"/><path d="M110 270 L100.5 270" fill="none" stroke="#176bc0" stroke-width="0.8"/><polygon class="net-port" points="100.5,270 95.5,275.5 74.5,275.5 69.5,270 74.5,264.5 95.5,264.5 " fill="none" stroke="#176bc0" stroke-width="0.8"/><text class="marker-name" transform="translate(56.5 270) rotate(0)" y="3.5" text-anchor="middle" font-size="10" textLength="24" lengthAdjust="spacingAndGlyphs" fill="#176bc0">RTS</text><path d="M90 240 L90 230" fill="none" stroke="#07814d" stroke-width="0.8"/><path d="M90 230 L90 220.5" fill="none" stroke="#176bc0" stroke-width="0.8"/><polygon class="net-port" points="90,220.5 84.5,215.5 84.5,194.5 90,189.5 95.5,194.5 95.5,215.5 " fill="none" stroke="#176bc0" stroke-width="0.8"/><text class="marker-name" transform="translate(90 173.5) rotate(-90)" y="3.5" text-anchor="middle" font-size="10" textLength="30" lengthAdjust="spacingAndGlyphs" fill="#176bc0">Q2_B</text><path d="M120 220 L120 210" fill="none" stroke="#07814d" stroke-width="0.8"/><path d="M120 210 L120 200.5" fill="none" stroke="#176bc0" stroke-width="0.8"/><polygon class="net-port" points="120,200.5 114.5,195.5 114.5,174.5 120,169.5 125.5,174.5 125.5,195.5 " fill="none" stroke="#176bc0" stroke-width="0.8"/><text class="marker-name" transform="translate(120 159.5) rotate(-90)" y="3.5" text-anchor="middle" font-size="10" textLength="18" lengthAdjust="spacingAndGlyphs" fill="#176bc0">EN</text><circle class="junction" cx="90" cy="240" r="1.6" fill="#07814d"/><circle class="junction" cx="120" cy="305" r="1.6" fill="#07814d"/><circle class="junction" cx="120" cy="270" r="1.6" fill="#07814d"/><circle class="junction" cx="175" cy="280" r="1.6" fill="#07814d"/></g></svg>
