<svg xmlns="http://www.w3.org/2000/svg" width="720" height="720" viewBox="0 0 360 360"><rect width="100%" height="100%" fill="#f8fafc"/><g font-family="Arial,PingFang SC,sans-serif"><text x="20" y="28" font-size="20" fill="#22344d" text-anchor="start">synthetic-bus-lane · 布局预览</text><text x="20" y="49" font-size="9" fill="#546579" text-anchor="start">离线转译 / 简化符号 / 非仿真、非官方导图</text><text x="20" y="65" font-size="9" fill="#546579" text-anchor="start">只转译输入几何；离线预览不等于现场 Apply 验收。</text><text x="20" y="95" font-size="9" fill="#aa00aa" text-anchor="start">预案 · 1 个器件</text><rect x="20" y="110" width="245" height="215" fill="white" stroke="#aa00aa" stroke-dasharray="5 3"/><text x="30" y="136" font-size="20" fill="#aa00aa" text-anchor="start">synthetic-bus-lane</text><rect x="30" y="160" width="60" height="100" fill="white" stroke="#34445b" stroke-width="0.8"/><text x="30" y="156" font-size="7" fill="#24344a" text-anchor="start">U1</text><text x="30" y="269" font-size="5" fill="#546579" text-anchor="start"></text><path d="M60 260 L60 270" fill="none" stroke="#34445b" stroke-width="0.8"/><text x="60" y="261.5" font-size="4.5" fill="#34445b" text-anchor="middle">9</text><circle cx="60" cy="270" r="1.1" fill="#34445b"><title>U1.9 GND</title></circle><path d="M90 180 L100 180" fill="none" stroke="#34445b" stroke-width="0.8"/><text x="88" y="181.5" font-size="4.5" fill="#34445b" text-anchor="end">1</text><circle cx="100" cy="180" r="1.1" fill="#34445b"><title>U1.1 D0</title></circle><path d="M90 200 L100 200" fill="none" stroke="#34445b" stroke-width="0.8"/><text x="88" y="201.5" font-size="4.5" fill="#34445b" text-anchor="end">2</text><circle cx="100" cy="200" r="1.1" fill="#34445b"><title>U1.2 D1</title></circle><path d="M90 220 L100 220" fill="none" stroke="#34445b" stroke-width="0.8"/><text x="88" y="221.5" font-size="4.5" fill="#34445b" text-anchor="end">3</text><circle cx="100" cy="220" r="1.1" fill="#34445b"><title>U1.3 D2</title></circle><path d="M90 240 L100 240" fill="none" stroke="#34445b" stroke-width="0.8"/><text x="88" y="241.5" font-size="4.5" fill="#34445b" text-anchor="end">4</text><circle cx="100" cy="240" r="1.1" fill="#34445b"><title>U1.4 D3</title></circle><path d="M60 270 L60 280" fill="none" stroke="#07814d" stroke-width="0.8"/><path d="M60 280 L60 289.5" fill="none" stroke="#176bc0" stroke-width="0.8"/><path d="M49.5 289.5 L70.5 289.5" fill="none" stroke="#176bc0" stroke-width="0.8"/><path d="M53 294.5 L67 294.5" fill="none" stroke="#176bc0" stroke-width="0.8"/><path d="M56.5 299.5 L63.5 299.5" fill="none" stroke="#176bc0" stroke-width="0.8"/><text class="marker-name" transform="translate(60 305.5) rotate(0)" y="3.5" text-anchor="middle" font-size="10" textLength="16" lengthAdjust="spacingAndGlyphs" fill="#176bc0">GND</text><path d="M100 200 L130 200" fill="none" stroke="#07814d" stroke-width="0.8"/><path d="M130 200 L139.5 200" fill="none" stroke="#176bc0" stroke-width="0.8"/><polygon class="net-port" points="139.5,200 144.5,194.5 165.5,194.5 170.5,200 165.5,205.5 144.5,205.5 " fill="none" stroke="#176bc0" stroke-width="0.8"/><text class="marker-name" transform="translate(180.5 200) rotate(0)" y="3.5" text-anchor="middle" font-size="10" textLength="18" lengthAdjust="spacingAndGlyphs" fill="#176bc0">D1</text><path d="M100 240 L130 240" fill="none" stroke="#07814d" stroke-width="0.8"/><path d="M130 240 L139.5 240" fill="none" stroke="#176bc0" stroke-width="0.8"/><polygon class="net-port" points="139.5,240 144.5,234.5 165.5,234.5 170.5,240 165.5,245.5 144.5,245.5 " fill="none" stroke="#176bc0" stroke-width="0.8"/><text class="marker-name" transform="translate(180.5 240) rotate(0)" y="3.5" text-anchor="middle" font-size="10" textLength="18" lengthAdjust="spacingAndGlyphs" fill="#176bc0">D3</text><path d="M100 180 L130 180" fill="none" stroke="#07814d" stroke-width="0.8"/><path d="M130 180 L139.5 180" fill="none" stroke="#176bc0" stroke-width="0.8"/><polygon class="net-port" points="139.5,180 144.5,174.5 165.5,174.5 170.5,180 165.5,185.5 144.5,185.5 " fill="none" stroke="#176bc0" stroke-width="0.8"/><text class="marker-name" transform="translate(180.5 180) rotate(0)" y="3.5" text-anchor="middle" font-size="10" textLength="18" lengthAdjust="spacingAndGlyphs" fill="#176bc0">D0</text><path d="M100 220 L130 220" fill="none" stroke="#07814d" stroke-width="0.8"/><path d="M130 220 L139.5 220" fill="none" stroke="#176bc0" stroke-width="0.8"/><polygon class="net-port" points="139.5,220 144.5,214.5 165.5,214.5 170.5,220 165.5,225.5 144.5,225.5 " fill="none" stroke="#176bc0" stroke-width="0.8"/><text class="marker-name" transform="translate(180.5 220) rotate(0)" y="3.5" text-anchor="middle" font-size="10" textLength="18" lengthAdjust="spacingAndGlyphs" fill="#176bc0">D2</text><path class="bus" d="M210 240 L210 180" fill="none" stroke="#1d3f8f" stroke-width="2.6" stroke-linecap="square"/><path class="bus" d="M210 240 L200 240" fill="none" stroke="#1d3f8f" stroke-width="2.6" stroke-linecap="square"/><path class="bus" d="M210 220 L200 220" fill="none" stroke="#1d3f8f" stroke-width="2.6" stroke-linecap="square"/><path class="bus" d="M210 200 L200 200" fill="none" stroke="#1d3f8f" stroke-width="2.6" stroke-linecap="square"/><path class="bus" d="M210 180 L200 180" fill="none" stroke="#1d3f8f" stroke-width="2.6" stroke-linecap="square"/><text x="210" y="168" font-size="7" fill="#1d3f8f" text-anchor="start">D[0:3]</text></g></svg>
