<svg xmlns="http://www.w3.org/2000/svg" class="rc" viewBox="0 0 720 340" width="720" height="340" role="img" aria-label="各场景电源轨电流 Rail current per scenario"><title>各场景电源轨电流 Rail current per scenario</title><desc>分组柱状图：2 个类别 × 4 个系列，单位 A</desc><style>.rc{--rc-bg:#fcfcfb;--rc-ink:#0b0b0b;--rc-ink2:#52514e;--rc-grid:#e6e5e0;--rc-axis:#b9b8b2;--rc-box:#f3f2ee;--rc-ok:#0ca30c;--rc-warn:#fab219;--rc-bad:#d03b3b;--rc-unk:#9a9994;--rc-s1:#2a78d6;--rc-s2:#eb6834;--rc-s3:#1baf7a;--rc-s4:#eda100;--rc-s5:#e87ba4;--rc-s6:#008300;--rc-s7:#4a3aa7;--rc-s8:#e34948;}@media (prefers-color-scheme:dark){.rc{--rc-bg:#1a1a19;--rc-ink:#ffffff;--rc-ink2:#c3c2b7;--rc-grid:#34332f;--rc-axis:#5d5c57;--rc-box:#262624;--rc-s1:#3987e5;--rc-s2:#d95926;--rc-s3:#199e70;--rc-s4:#c98500;--rc-s5:#d55181;--rc-s6:#008300;--rc-s7:#9085e9;--rc-s8:#e66767;}}@media print{.rc{--rc-bg:#ffffff;--rc-ink:#000000;--rc-ink2:#333333;--rc-box:#f4f4f4}}.rc text{font-family:system-ui,-apple-system,"PingFang SC","Microsoft YaHei","Noto Sans CJK SC",sans-serif;font-size:12px;fill:var(--rc-ink)}.rc .m{fill:var(--rc-ink2)}.rc .sm{font-size:11px}.rc .ttl{font-size:14px;font-weight:600}.rc .grid{stroke:var(--rc-grid);stroke-width:1}.rc .axis{stroke:var(--rc-axis);stroke-width:1}.rc .bg{fill:var(--rc-bg)}.rc .ok{fill:var(--rc-ok)}.rc .warn{fill:var(--rc-warn)}.rc .bad{fill:var(--rc-bad)}.rc .unk{fill:var(--rc-unk)}.rc .box{fill:var(--rc-box);stroke:var(--rc-axis)}.rc .lbl{paint-order:stroke;stroke:var(--rc-bg);stroke-width:4px;stroke-linejoin:round}.rc .edge{fill:none;stroke:var(--rc-ink2);stroke-width:1.5}.rc .thr{stroke:var(--rc-bad);stroke-width:1.5;stroke-dasharray:4 3}.rc .thr2{stroke:var(--rc-warn);stroke-width:1.5;stroke-dasharray:4 3}.rc .s1{fill:var(--rc-s1)}.rc .k1{stroke:var(--rc-s1)}.rc .s2{fill:var(--rc-s2)}.rc .k2{stroke:var(--rc-s2)}.rc .s3{fill:var(--rc-s3)}.rc .k3{stroke:var(--rc-s3)}.rc .s4{fill:var(--rc-s4)}.rc .k4{stroke:var(--rc-s4)}.rc .s5{fill:var(--rc-s5)}.rc .k5{stroke:var(--rc-s5)}.rc .s6{fill:var(--rc-s6)}.rc .k6{stroke:var(--rc-s6)}.rc .s7{fill:var(--rc-s7)}.rc .k7{stroke:var(--rc-s7)}.rc .s8{fill:var(--rc-s8)}.rc .k8{stroke:var(--rc-s8)}</style><rect class="bg" x="0" y="0" width="720" height="340" rx="6"/><text class="ttl" x="16" y="24">各场景电源轨电流 Rail current per scenario</text><rect class="s1" x="16" y="36" width="12" height="12" rx="2"/><text class="sm" x="32" y="46">typical</text><rect class="s2" x="93" y="36" width="12" height="12" rx="2"/><text class="sm" x="109" y="46">peak</text><rect class="s3" x="149" y="36" width="12" height="12" rx="2"/><text class="sm" x="165" y="46">terminal-only</text><rect class="s4" x="268" y="36" width="12" height="12" rx="2"/><text class="sm" x="284" y="46">terminal-j2-only</text><line class="grid" x1="64" x2="704" y1="284.0" y2="284.0"/><text class="m sm" x="58" y="288.0" text-anchor="end">0</text><line class="grid" x1="64" x2="704" y1="229.0" y2="229.0"/><text class="m sm" x="58" y="233.0" text-anchor="end">0.0005</text><line class="grid" x1="64" x2="704" y1="174.0" y2="174.0"/><text class="m sm" x="58" y="178.0" text-anchor="end">0.001</text><line class="grid" x1="64" x2="704" y1="119.0" y2="119.0"/><text class="m sm" x="58" y="123.0" text-anchor="end">0.0015</text><line class="grid" x1="64" x2="704" y1="64.0" y2="64.0"/><text class="m sm" x="58" y="68.0" text-anchor="end">0.002</text><text class="m sm" transform="translate(14 174) rotate(-90)" text-anchor="middle">电流 (A)</text><line class="axis" x1="64" x2="704" y1="284.0" y2="284.0"/><rect class="s1" x="164.0" y="135.5" width="28.0" height="148.5" rx="2"><title>+5V · typical: 0.00135 A</title></rect><rect class="s2" x="194.0" y="98.1" width="28.0" height="185.9" rx="2"><title>+5V · peak: 0.00169 A</title></rect><rect class="s3" x="224.0" y="284.0" width="28.0" height="0.5" rx="2"><title>+5V · terminal-only: 0 A</title></rect><rect class="s4" x="254.0" y="98.1" width="28.0" height="185.9" rx="2"><title>+5V · terminal-j2-only: 0.00169 A</title></rect><text class="sm" x="224.0" y="302" text-anchor="middle">+5V</text><rect class="s1" x="484.0" y="190.5" width="28.0" height="93.5" rx="2"><title>VREF · typical: 0.00085 A</title></rect><rect class="s2" x="514.0" y="190.5" width="28.0" height="93.5" rx="2"><title>VREF · peak: 0.00085 A</title></rect><rect class="s3" x="544.0" y="284.0" width="28.0" height="0.5" rx="2"><title>VREF · terminal-only: 0 A</title></rect><rect class="s4" x="574.0" y="190.5" width="28.0" height="93.5" rx="2"><title>VREF · terminal-j2-only: 0.00085 A</title></rect><text class="sm" x="544.0" y="302" text-anchor="middle">VREF</text></svg>
